{
  "accessors": [
    {
      "name": "Round_Round.007-Mesh_0_positions",
      "componentType": 5126,
      "count": 8160,
      "min": [
        -0.9660220146179199,
        1.399114966392517,
        -0.18802200257778168
      ],
      "max": [
        0.9545599818229675,
        2.444916009902954,
        0.19033600389957428
      ],
      "type": "VEC3",
      "bufferView": 0,
      "byteOffset": 0
    },
    {
      "name": "Round_Round.007-Mesh_0_normals",
      "componentType": 5126,
      "count": 8160,
      "min": [
        -0.9999960064888,
        -0.9997484683990479,
        -0.9988569021224976
      ],
      "max": [
        0.9999114871025085,
        0.9999997615814209,
        0.9988569021224976
      ],
      "type": "VEC3",
      "bufferView": 1,
      "byteOffset": 0
    },
    {
      "name": "Round_Round.007-Mesh_0_indices",
      "componentType": 5123,
      "count": 13590,
      "min": [
        0
      ],
      "max": [
        8159
      ],
      "type": "SCALAR",
      "bufferView": 2,
      "byteOffset": 0
    },
    {
      "name": "Round_Round.007-Mesh_1_positions",
      "componentType": 5126,
      "count": 38040,
      "min": [
        -0.9972580075263977,
        0.039976999163627625,
        -0.23706400394439697
      ],
      "max": [
        0.9839230179786682,
        2.442876100540161,
        0.23747600615024567
      ],
      "type": "VEC3",
      "bufferView": 0,
      "byteOffset": 97920
    },
    {
      "name": "Round_Round.007-Mesh_1_normals",
      "componentType": 5126,
      "count": 38040,
      "min": [
        -1,
        -0.9999997615814209,
        -0.9999997615814209
      ],
      "max": [
        1,
        0.9999997615814209,
        0.9999998807907104
      ],
      "type": "VEC3",
      "bufferView": 1,
      "byteOffset": 97920
    },
    {
      "name": "Round_Round.007-Mesh_1_indices",
      "componentType": 5123,
      "count": 228240,
      "min": [
        0
      ],
      "max": [
        38039
      ],
      "type": "SCALAR",
      "bufferView": 2,
      "byteOffset": 27180
    }
  ],
  "asset": {
    "generator": "obj2gltf",
    "version": "2.0"
  },
  "buffers": [
    {
      "name": "the_crowned_ring",
      "byteLength": 1592460,
      "uri": "data:application/octet-stream;base64,"
    }
  ],
  "bufferViews": [
    {
      "name": "bufferView_0",
      "buffer": 0,
      "byteLength": 554400,
      "byteOffset": 0,
      "byteStride": 12,
      "target": 34962
    },
    {
      "name": "bufferView_1",
      "buffer": 0,
      "byteLength": 554400,
      "byteOffset": 554400,
      "byteStride": 12,
      "target": 34962
    },
    {
      "name": "bufferView_2",
      "buffer": 0,
      "byteLength": 483660,
      "byteOffset": 1108800,
      "target": 34963
    }
  ],
  "materials": [
    {
      "name": "Diamond.001",
      "pbrMetallicRoughness": {
        "baseColorFactor": [
          0.8,
          0.8,
          0.8,
          1
        ],
        "metallicFactor": 0,
        "roughnessFactor": 0.903921569
      },
      "emissiveFactor": [
        0,
        0,
        0
      ],
      "alphaMode": "OPAQUE",
      "doubleSided": false
    },
    {
      "name": "Ring_Material.001",
      "pbrMetallicRoughness": {
        "baseColorFactor": [
          0.64,
          0.64,
          0.64,
          1
        ],
        "metallicFactor": 0,
        "roughnessFactor": 0.903921569
      },
      "emissiveFactor": [
        0,
        0,
        0
      ],
      "alphaMode": "OPAQUE",
      "doubleSided": false
    }
  ],
  "meshes": [
    {
      "name": "Round_Round.007-Mesh",
      "primitives": [
        {
          "attributes": {
            "POSITION": 0,
            "NORMAL": 1
          },
          "indices": 2,
          "material": 0,
          "mode": 4
        },
        {
          "attributes": {
            "POSITION": 3,
            "NORMAL": 4
          },
          "indices": 5,
          "material": 1,
          "mode": 4
        }
      ]
    }
  ],
  "nodes": [
    {
      "name": "Round_Round.007",
      "mesh": 0
    }
  ],
  "scene": 0,
  "scenes": [
    {
      "nodes": [
        0
      ]
    }
  ]
}
